<?xml version="1.0" encoding="utf-8"?>
<!-- Generator: Adobe Illustrator 23.0.1, SVG Export Plug-In . SVG Version: 6.00 Build 0)  -->
<svg version="1.1" id="Livello_1" xmlns="http://www.w3.org/2000/svg" xmlns:xlink="http://www.w3.org/1999/xlink" x="0px" y="0px"
	 viewBox="0 0 97.9 97.9" style="enable-background:new 0 0 97.9 97.9;" xml:space="preserve">
<style type="text/css">
	.st0{fill:url(#SVGID_1_);}
	.st1{fill:url(#SVGID_2_);}
	.st2{fill:url(#SVGID_3_);}
	.st3{fill:url(#SVGID_4_);}
	.st4{fill:url(#SVGID_5_);}
	.st5{fill:url(#SVGID_6_);}
</style>
<g>
	<linearGradient id="SVGID_1_" gradientUnits="userSpaceOnUse" x1="0.2169" y1="50.9892" x2="98.1379" y2="50.9892">
		<stop  offset="0.2593" style="stop-color:#FFDB6E"/>
		<stop  offset="1" style="stop-color:#FFBC5E"/>
	</linearGradient>
	<path class="st0" d="M98.1,83c-0.5,2.8-1.8,5.1-4,6.9c-2.1,1.7-4.6,2.4-7.4,2.4c-13.4,0-26.8,0-40.1,0c-11.7,0-23.4,0-35.1,0
		c-5.2,0-9.2-3-10.8-7.8c-0.3-0.9-0.5-1.9-0.5-2.9c0-20.4,0-40.8,0-61.2c0-5.9,5.1-11,10.9-11c1.4,0,2,0.5,2,2c0,4.1,0,8.2,0,12.3
		c0,0.9,0.2,1.3,1.2,1.3c5.5,0,11,0,16.4,0c0.7,0,1.2-0.2,1.6-0.8c4.2-5,9.7-7.8,16.2-8c7-0.3,12.9,2.3,17.6,7.6
		c0.7,0.8,1.4,1.2,2.5,1.2c5-0.1,10.1,0,15.1,0c1.5,0,1.5,0,1.5-1.4c0-3.9,0-7.9,0-11.8c0-1.8,0.5-2.3,2.3-2.2
		c4.5,0.1,8.9,3.6,10.3,8.2c0.1,0.4,0.2,0.8,0.3,1.2C98.1,40.3,98.1,61.7,98.1,83z M3.2,74.1c0.4-0.4,0.7-0.6,0.9-0.8
		c1.4-1.2,2.9-2,4.6-2.4c1-0.2,1.3-0.6,1.3-1.6c0-9.7,0-19.4,0-29c0-0.5,0-1.1,0.2-1.6c0.2-0.6,0.7-1,1.3-1c0.7,0,1.2,0.3,1.5,1
		c0.2,0.5,0.2,0.9,0.2,1.4c0,10.4,0,20.8,0,31.1c0,0.2,0,0.4,0,0.7c-0.1,1-0.5,1.5-1.6,1.7c-0.8,0.1-1.5,0.2-2.3,0.4
		c-5.2,1.4-8.3,8-3.9,12.8c1.7,1.8,3.8,2.5,6.3,2.5c25,0,50.1,0,75.1,0c0.3,0,0.6,0,0.9,0c3.1-0.3,5.5-1.7,6.8-4.7
		c1.3-2.9,0.7-5.6-1.2-8c-1.4-1.8-3.3-2.8-5.7-3c-1.9-0.2-2.3-0.6-2.3-2.5c0-1.7,0-3.4,0-5.1c0-0.5,0-1.1,0-1.6
		c0.1-0.9,0.7-1.5,1.5-1.4c0.9,0,1.4,0.5,1.5,1.3c0.1,0.3,0.1,0.7,0.1,1c0,1.4,0,2.7,0,4.1c0,0.8,0.2,1.2,1,1.4
		c1.9,0.4,3.5,1.3,5,2.5c0.2,0.2,0.4,0.5,0.8,0.5c0-0.1,0-0.2,0-0.3c0-17.4,0-34.8,0-52.3c0-3.8-1.8-6.6-5.4-8.2
		c-1.3-0.5-1.4-0.4-1.4,0.9c0,14.5,0,29,0,43.5c0,0.5,0,1-0.1,1.4c-0.2,0.8-0.7,1.3-1.5,1.3c-0.8,0-1.3-0.6-1.5-1.4
		c-0.1-0.4,0-0.8,0-1.1c0-9.4,0-18.9,0-28.3c0-1-0.3-1.2-1.2-1.2c-4.6,0-9.2,0-13.8,0c-1.1,0-1.1,0-0.6,1c1.5,3.3,2.3,6.8,2.1,10.4
		c-0.2,4.3-1.6,8.2-4,11.8c-3.1,4.8-5.9,9.7-8.3,14.8c-0.8,1.7-1.3,3.4-1.3,5.4c0.1,2.7,0.1,5.3,0,8c0,3.3-2.1,5.3-5.4,5.4
		c-2.2,0-4.5,0-6.7,0c-3.3,0-5.4-2.1-5.4-5.4c0-3.1,0-6.2,0-9.4c0-0.8-0.1-1.4-0.4-2.1c-1.5-3.4-3.2-6.7-5-10
		c-0.7-1.2-0.6-2.2,0.3-2.7c0.9-0.5,1.7-0.1,2.4,1.2c0.4,0.7,0.8,1.4,1.2,2.1c0.5,0.9,1,1.8,1.6,3c0-3.6,0.1-7,0-10.3
		c-0.2-3.4,0.2-6.5,2.1-9.4c0-0.1,0-0.1,0.1-0.2c1.7-3.5,3.3-7,5-10.4c0.3-0.7,0.8-1.3,1.7-1.3c0.8,0,1.2,0.6,1.5,1.2
		c2.3,4.7,4.5,9.5,6.8,14.2c0.3,0.6,0.4,1.3,0.4,2c0,4.2,0,8.5,0,12.7c0,0.3,0,0.7,0,1.2c0.2-0.2,0.3-0.3,0.3-0.4
		c2.2-4.1,4.6-8.1,7.1-12c2.7-4.2,3.6-8.8,2.8-13.7C66.5,25,57.2,18.2,46.7,19.6c-12.4,1.7-20.1,15-14.8,27c0.7,1.5,1.6,2.9,2.5,4.3
		c0.5,0.8,0.3,1.6-0.4,2.1c-0.7,0.5-1.6,0.3-2.1-0.4c-0.4-0.6-0.8-1.2-1.2-1.8c-4.2-7-4.7-14.2-1.4-21.6c0.4-0.9,0.1-0.9-0.7-0.9
		c-4.7,0-9.5,0-14.2,0c-1.3,0-1.3,0-1.3,1.3c0,1.2,0,2.4,0,3.6c0,1-0.6,1.7-1.5,1.7c-0.8,0-1.5-0.6-1.6-1.6c0-0.3,0-0.7,0-1
		c0-5.4,0-10.8,0-16.1c0-0.9,0-1.7,0-2.6c0-0.6-0.2-0.7-0.8-0.6c-0.8,0.2-1.6,0.6-2.2,1c-2.8,1.9-3.8,4.6-3.8,7.8
		c0,17.1,0,34.2,0,51.3C3.2,73.4,3.2,73.6,3.2,74.1z M43.9,57.7c0,2.9,0,5.7,0,8.6c0,0.7,0.2,1,1,1c3.1,0,6.2,0,9.3,0
		c0.8,0,1-0.3,1-1c0-5.7,0-11.5,0-17.2c0-0.7-0.2-1-1-1c-3.1,0-6.1,0-9.2,0c-0.8,0-1.1,0.3-1.1,1.1C43.9,52,43.9,54.9,43.9,57.7z
		 M49.5,76.6c-0.9,0-1.8,0-2.8,0c-2.9,0-2.9,0-2.9,2.9c0,1.7,0.7,2.4,2.4,2.5c1.1,0,2.2,0,3.2,0c1.2,0,2.4,0,3.6-0.1
		c1.3-0.1,1.9-0.8,1.9-2.1c0-0.8,0-1.5,0-2.3c0.1-0.8-0.3-1-1-1C52.6,76.6,51,76.6,49.5,76.6z M49.5,70.3c-1.2,0-2.4,0-3.5,0
		c-2.3,0-2-0.4-2.1,2.1c0,0.9,0.4,1.1,1.2,1.1c2.6,0,5.2,0,7.8,0c2.5,0,2.2,0.3,2.2-2.3c0-0.7-0.2-1-0.9-0.9
		C52.6,70.3,51,70.3,49.5,70.3z M49.4,45.1c1.3,0,2.7,0,4,0c0.6,0,0.7-0.2,0.5-0.7c-0.6-1.1-1.1-2.3-1.6-3.4
		c-0.2-0.5-0.6-0.8-1.2-0.7c-1,0-2.1,0-3.2,0c-0.6,0-0.9,0.2-1.2,0.7c-0.5,1.2-1.1,2.3-1.6,3.4c-0.3,0.6-0.1,0.7,0.5,0.7
		C46.8,45.1,48.1,45.1,49.4,45.1z"/>
	<linearGradient id="SVGID_2_" gradientUnits="userSpaceOnUse" x1="47.8356" y1="10.2384" x2="50.9959" y2="10.2384">
		<stop  offset="0.2593" style="stop-color:#FFDB6E"/>
		<stop  offset="1" style="stop-color:#FFBC5E"/>
	</linearGradient>
	<path class="st1" d="M51,10.3c0,0.8,0,1.7,0,2.5c0,1-0.6,1.6-1.5,1.7c-0.8,0-1.5-0.6-1.5-1.5c-0.1-1.8-0.2-3.7,0-5.5
		C48.1,6.5,48.8,6,49.5,6c0.8,0,1.4,0.7,1.5,1.6C51,8.5,51,9.4,51,10.3z"/>
	<linearGradient id="SVGID_3_" gradientUnits="userSpaceOnUse" x1="31.775" y1="13.126" x2="38.0641" y2="13.126">
		<stop  offset="0.2593" style="stop-color:#FFDB6E"/>
		<stop  offset="1" style="stop-color:#FFBC5E"/>
	</linearGradient>
	<path class="st2" d="M33.3,9.5c0.6,0,1.1,0.3,1.4,0.8c1,1.3,2,2.6,2.9,3.9c0.6,0.9,0.6,1.8-0.1,2.3c-0.7,0.5-1.6,0.4-2.3-0.4
		c-1.1-1.3-2.1-2.7-3.1-4.1c-0.4-0.5-0.5-1.1-0.1-1.7C32.3,9.7,32.8,9.5,33.3,9.5z"/>
	<linearGradient id="SVGID_4_" gradientUnits="userSpaceOnUse" x1="60.3145" y1="13.1421" x2="66.6463" y2="13.1421">
		<stop  offset="0.2593" style="stop-color:#FFDB6E"/>
		<stop  offset="1" style="stop-color:#FFBC5E"/>
	</linearGradient>
	<path class="st3" d="M65.1,9.5c1.1,0,1.9,1.2,1.3,2.2c-1,1.7-2.3,3.2-3.6,4.7c-0.6,0.6-1.3,0.6-2,0.1c-0.6-0.5-0.8-1.2-0.3-1.9
		c1.1-1.6,2.3-3,3.5-4.5C64.3,9.6,64.7,9.5,65.1,9.5z"/>
	<linearGradient id="SVGID_5_" gradientUnits="userSpaceOnUse" x1="21.0105" y1="20.6196" x2="28.6591" y2="20.6196">
		<stop  offset="0.2593" style="stop-color:#FFDB6E"/>
		<stop  offset="1" style="stop-color:#FFBC5E"/>
	</linearGradient>
	<path class="st4" d="M22.3,17.8c0.6,0,0.9,0.1,1.2,0.3c1.4,0.8,2.7,1.5,4.1,2.3c1,0.6,1.3,1.5,0.9,2.3c-0.4,0.8-1.4,1-2.4,0.4
		c-1.4-0.8-2.8-1.6-4.1-2.4c-0.7-0.4-1-1.1-0.8-1.9C21.3,18.2,21.8,17.8,22.3,17.8z"/>
	<linearGradient id="SVGID_6_" gradientUnits="userSpaceOnUse" x1="69.7659" y1="20.6302" x2="77.4064" y2="20.6302">
		<stop  offset="0.2593" style="stop-color:#FFDB6E"/>
		<stop  offset="1" style="stop-color:#FFBC5E"/>
	</linearGradient>
	<path class="st5" d="M77.4,19.3c0,0.7-0.4,1.1-0.9,1.5c-1.4,0.8-2.8,1.6-4.2,2.4c-0.9,0.5-1.8,0.3-2.3-0.4
		c-0.5-0.8-0.2-1.7,0.8-2.3c1.4-0.8,2.8-1.6,4.2-2.4C76.2,17.4,77.4,18.1,77.4,19.3z"/>
</g>
</svg>
