<?xml version="1.0" encoding="utf-8"?>
<!-- Generator: Adobe Illustrator 23.0.1, SVG Export Plug-In . SVG Version: 6.00 Build 0)  -->
<svg version="1.1" id="Icons" xmlns="http://www.w3.org/2000/svg" xmlns:xlink="http://www.w3.org/1999/xlink" x="0px" y="0px"
	 viewBox="0 0 32 32" style="enable-background:new 0 0 32 32;" xml:space="preserve">
<style type="text/css">
	.st0{fill:none;stroke:url(#SVGID_1_);stroke-width:2;stroke-linecap:round;stroke-linejoin:round;stroke-miterlimit:10;}
	.st1{fill:none;stroke:url(#SVGID_2_);stroke-width:2;stroke-linecap:round;stroke-linejoin:round;stroke-miterlimit:10;}
	.st2{fill:none;stroke:url(#SVGID_3_);stroke-width:2;stroke-linecap:round;stroke-linejoin:round;stroke-miterlimit:10;}
	.st3{fill:none;stroke:url(#SVGID_4_);stroke-width:2;stroke-linecap:round;stroke-linejoin:round;stroke-miterlimit:10;}
</style>
<linearGradient id="SVGID_1_" gradientUnits="userSpaceOnUse" x1="2" y1="13.1504" x2="23.0073" y2="13.1504">
	<stop  offset="0.2593" style="stop-color:#FFDB6E"/>
	<stop  offset="1" style="stop-color:#FFBC5E"/>
</linearGradient>
<path class="st0" d="M18.9,9.1c-1-0.2-2,0-2.8,0.4c-0.7,0.4-1.6,0.5-2.4,0.2c-0.1,0-0.2-0.1-0.3-0.1l-8-1.3C4.1,8.2,3,9.1,3,10.2
	v5.9c0,1.2,1.1,2,2.3,1.9l8-1.3c0.1,0,0.2,0,0.3-0.1c0.9-0.3,1.9-0.3,2.9,0c0.5,0.2,1,0.3,1.5,0.3c2.5,0,4.5-2.3,3.9-4.9
	C21.6,10.6,20.4,9.4,18.9,9.1z"/>
<linearGradient id="SVGID_2_" gradientUnits="userSpaceOnUse" x1="5.8" y1="16.4946" x2="28" y2="16.4946">
	<stop  offset="0.2593" style="stop-color:#FFDB6E"/>
	<stop  offset="1" style="stop-color:#FFBC5E"/>
</linearGradient>
<path class="st1" d="M9.5,9c1.3-3.6,4.7-6.2,8.8-6C23,3.2,27,7.2,27,11.9c0,1.8-0.5,3.5-1.4,4.9c-1.8,2.8-2.5,6.2-1.6,9.4l1,3.8H13
	l0.7-3.9c0.2-0.9-0.7-1.6-1.5-1.3l0,0c-2,0.6-4-1-3.8-3.1L8.6,18H7.5c-0.3,0-0.5-0.1-0.7-0.2"/>
<linearGradient id="SVGID_3_" gradientUnits="userSpaceOnUse" x1="11.1" y1="22.55" x2="19" y2="22.55">
	<stop  offset="0.2593" style="stop-color:#FFDB6E"/>
	<stop  offset="1" style="stop-color:#FFBC5E"/>
</linearGradient>
<path class="st2" d="M18,20.3c0,1.6-1,3.1-2.6,3.6l-3.3,0.9"/>
<linearGradient id="SVGID_4_" gradientUnits="userSpaceOnUse" x1="16" y1="13" x2="20" y2="13">
	<stop  offset="0.2593" style="stop-color:#FFDB6E"/>
	<stop  offset="1" style="stop-color:#FFBC5E"/>
</linearGradient>
<circle class="st3" cx="18" cy="13" r="1"/>
</svg>
