<?xml version="1.0" encoding="utf-8"?>
<!-- Generator: Adobe Illustrator 23.0.1, SVG Export Plug-In . SVG Version: 6.00 Build 0)  -->
<svg version="1.1" id="Livello_1" xmlns="http://www.w3.org/2000/svg" xmlns:xlink="http://www.w3.org/1999/xlink" x="0px" y="0px"
	 viewBox="0 0 97.9 97.9" style="enable-background:new 0 0 97.9 97.9;" xml:space="preserve">
<style type="text/css">
	.st0{fill:url(#SVGID_1_);}
	.st1{stroke:url(#SVGID_2_);stroke-width:4;stroke-linecap:round;stroke-miterlimit:10;}
	.st2{stroke:url(#SVGID_3_);stroke-width:4;stroke-linecap:round;stroke-miterlimit:10;}
	.st3{stroke:url(#SVGID_4_);stroke-width:4;stroke-linecap:round;stroke-miterlimit:10;}
</style>
<g>
	<linearGradient id="SVGID_1_" gradientUnits="userSpaceOnUse" x1="0.218" y1="49.3837" x2="98.1379" y2="49.3837">
		<stop  offset="0.2593" style="stop-color:#FFDB6E"/>
		<stop  offset="1" style="stop-color:#FFBC5E"/>
	</linearGradient>
	<path class="st0" d="M98.1,62.6c-0.9,2.2-2.6,3.3-4.9,3.1c-0.7,0-1.1,0.2-1.3,0.9c-1.3,4.7-5.2,7.7-10.1,7.7c-5.9,0-11.8,0-17.8,0
		c-2.1,0-3.6-1.1-4.4-3.1c-0.4-1.2-0.8-2.5-1.2-3.7c-0.3-0.8-0.8-1.2-1.7-1.2c-5.1,0-10.2,0-15.3,0c-1,0-1.5,0.4-1.7,1.3
		c-0.3,1.2-0.7,2.4-1.1,3.5c-0.7,2.1-2.2,3.2-4.5,3.2c-6,0-12,0-18,0c-4.5,0-8.5-3.1-9.7-7.4C6.3,66,5.9,65.6,5,65.7
		C1.9,65.7,0.2,64,0.2,61c0-8.2,0-16.4,0-24.5c0-3,1.6-4.7,4.7-4.7c1.1,0,1.7-0.3,2.3-1.4c1.9-3.8,5-5.9,9.2-5.9
		c21.9,0,43.8,0,65.6,0c4.4,0,7.6,2.3,9.4,6.3c0.4,0.8,0.8,1,1.6,1c1.5-0.1,2.9,0.1,4,1.3c0.5,0.5,0.8,1.2,1.1,1.8
		C98.1,44.1,98.1,53.3,98.1,62.6z M49.2,27.7c-10.7,0-21.4,0-32.1,0c-4.7,0-7.8,3.1-7.8,7.8c0,9.3,0,18.7,0,28
		c0,4.5,3.1,7.6,7.5,7.7c5.7,0,11.4,0,17.1,0c0.9,0,1.5-0.4,1.8-1.3c0.4-1.2,0.7-2.4,1.1-3.5c0.7-2.1,2.3-3.3,4.5-3.3
		c5.3,0,10.5,0,15.8,0c2.2,0,3.7,1.2,4.4,3.3c0.4,1.1,0.7,2.2,1.1,3.3c0.5,1.4,0.7,1.6,2.2,1.6c5.5,0,11,0,16.4,0
		c0.9,0,1.7-0.1,2.5-0.3c3.2-0.9,5.3-3.7,5.3-7.1c0-9.3,0-18.7,0-28c0-5-3-8-8-8C70.4,27.7,59.8,27.7,49.2,27.7z M6,48.6
		c0-4.1,0-8.1,0-12.2c0-1.3-0.2-1.5-1.5-1.4c-1.1,0.1-1.1,0.9-1.1,1.7c0,7,0,13.9,0,20.9c0,1.2,0,2.4,0,3.5c0,1,0.5,1.2,1.6,1.2
		c1,0,1-0.6,0.9-1.2C6,57,6,52.8,6,48.6z M95,48.7c0-4.1,0-8.2,0-12.3c0-1.1-0.4-1.3-1.6-1.4c-1.1,0-1,0.6-1,1.3
		c0,8.2,0,16.5,0,24.7c0,1.3,0.1,1.4,1.4,1.3c0.9-0.1,1.2-0.4,1.2-1.5C95,56.8,95,52.7,95,48.7z"/>
</g>
<linearGradient id="SVGID_2_" gradientUnits="userSpaceOnUse" x1="46.9259" y1="52.5139" x2="50.9259" y2="52.5139">
	<stop  offset="0.2593" style="stop-color:#FFDB6E"/>
	<stop  offset="1" style="stop-color:#FFBC5E"/>
</linearGradient>
<line class="st1" x1="48.9" y1="48.9" x2="48.9" y2="56.1"/>
<linearGradient id="SVGID_3_" gradientUnits="userSpaceOnUse" x1="56.9259" y1="52.5139" x2="60.9259" y2="52.5139">
	<stop  offset="0.2593" style="stop-color:#FFDB6E"/>
	<stop  offset="1" style="stop-color:#FFBC5E"/>
</linearGradient>
<line class="st2" x1="58.9" y1="48.9" x2="58.9" y2="56.1"/>
<linearGradient id="SVGID_4_" gradientUnits="userSpaceOnUse" x1="36.9259" y1="52.5139" x2="40.9259" y2="52.5139">
	<stop  offset="0.2593" style="stop-color:#FFDB6E"/>
	<stop  offset="1" style="stop-color:#FFBC5E"/>
</linearGradient>
<line class="st3" x1="38.9" y1="48.9" x2="38.9" y2="56.1"/>
</svg>
