<?xml version="1.0" encoding="utf-8"?>
<!-- Generator: Adobe Illustrator 23.0.1, SVG Export Plug-In . SVG Version: 6.00 Build 0)  -->
<svg version="1.1" id="Livello_1" xmlns="http://www.w3.org/2000/svg" xmlns:xlink="http://www.w3.org/1999/xlink" x="0px" y="0px"
	 viewBox="0 0 97.9 97.9" style="enable-background:new 0 0 97.9 97.9;" xml:space="preserve">
<style type="text/css">
	.st0{fill:none;stroke:url(#SVGID_1_);stroke-width:11;stroke-miterlimit:10;}
	.st1{fill:none;stroke:url(#SVGID_2_);stroke-width:4;stroke-linecap:round;stroke-miterlimit:10;}
	.st2{display:none;}
	.st3{display:inline;}
	.st4{fill:none;stroke:url(#SVGID_3_);stroke-width:11;stroke-miterlimit:10;}
	.st5{fill:none;stroke:url(#SVGID_4_);stroke-width:11;stroke-miterlimit:10;}
	.st6{fill:none;stroke:url(#SVGID_5_);stroke-width:11;stroke-miterlimit:10;}
	.st7{fill:none;stroke:url(#SVGID_6_);stroke-width:11;stroke-miterlimit:10;}
	.st8{fill:none;stroke:url(#SVGID_7_);stroke-width:11;stroke-miterlimit:10;}
	.st9{fill:none;stroke:url(#SVGID_8_);stroke-width:11;stroke-miterlimit:10;}
	.st10{display:none;fill:url(#SVGID_9_);}
	.st11{display:inline;fill:#FFFFFF;stroke:#000000;stroke-width:8;stroke-miterlimit:10;}
</style>
<image style="overflow:visible;" width="48" height="48" xlink:href="unity-logo.png"  transform="matrix(2.0386 0 0 2.0386 0 0)">
</image>
<linearGradient id="SVGID_1_" gradientUnits="userSpaceOnUse" x1="48.9259" y1="86.9815" x2="48.9259" y2="86.9815">
	<stop  offset="0.2593" style="stop-color:#FFDB6E"/>
	<stop  offset="1" style="stop-color:#FFBC5E"/>
</linearGradient>
<path class="st0" d="M48.9,87"/>
<linearGradient id="SVGID_2_" gradientUnits="userSpaceOnUse" x1="113.5845" y1="37.4081" x2="141.1401" y2="37.4081" gradientTransform="matrix(1 0 0 -1 0 89.8148)">
	<stop  offset="0.2593" style="stop-color:#FFDB6E"/>
	<stop  offset="1" style="stop-color:#FFBC5E"/>
</linearGradient>
<line class="st1" x1="115.6" y1="64.1" x2="139.2" y2="40.8"/>
<g class="st2">
	<g class="st3">
		<linearGradient id="SVGID_3_" gradientUnits="userSpaceOnUse" x1="8.5" y1="36.5907" x2="51.6438" y2="36.5907">
			<stop  offset="0.2593" style="stop-color:#FFDB6E"/>
			<stop  offset="1" style="stop-color:#FFBC5E"/>
		</linearGradient>
		<polyline class="st4" points="48.9,8.2 14,28 14,69.8 		"/>
		<linearGradient id="SVGID_4_" gradientUnits="userSpaceOnUse" x1="11.9734" y1="38.8056" x2="51.7303" y2="38.8056">
			<stop  offset="0.2593" style="stop-color:#FFDB6E"/>
			<stop  offset="1" style="stop-color:#FFBC5E"/>
		</linearGradient>
		<line class="st5" x1="14.8" y1="28.7" x2="48.9" y2="48.9"/>
	</g>
	<g class="st3">
		
			<linearGradient id="SVGID_5_" gradientUnits="userSpaceOnUse" x1="-26.4259" y1="36.5907" x2="16.7179" y2="36.5907" gradientTransform="matrix(-1 0 0 1 62.926 0)">
			<stop  offset="0.2593" style="stop-color:#FFDB6E"/>
			<stop  offset="1" style="stop-color:#FFBC5E"/>
		</linearGradient>
		<polyline class="st6" points="48.9,8.2 83.9,28 83.9,69.8 		"/>
		
			<linearGradient id="SVGID_6_" gradientUnits="userSpaceOnUse" x1="-22.9525" y1="38.8056" x2="16.8044" y2="38.8056" gradientTransform="matrix(-1 0 0 1 62.926 0)">
			<stop  offset="0.2593" style="stop-color:#FFDB6E"/>
			<stop  offset="1" style="stop-color:#FFBC5E"/>
		</linearGradient>
		<line class="st7" x1="83.1" y1="28.7" x2="48.9" y2="48.9"/>
	</g>
	<g class="st3">
		
			<linearGradient id="SVGID_7_" gradientUnits="userSpaceOnUse" x1="-61.3557" y1="37.2369" x2="-18.212" y2="37.2369" gradientTransform="matrix(0.5117 -0.8592 -0.8592 -0.5117 102.1309 56.3123)">
			<stop  offset="0.2593" style="stop-color:#FFDB6E"/>
			<stop  offset="1" style="stop-color:#FFBC5E"/>
		</linearGradient>
		<polyline class="st8" points="83.8,69.8 48.9,89.6 13,68.3 		"/>
		
			<linearGradient id="SVGID_8_" gradientUnits="userSpaceOnUse" x1="-57.8824" y1="39.4517" x2="-18.1254" y2="39.4517" gradientTransform="matrix(0.5117 -0.8592 -0.8592 -0.5117 102.1309 56.3123)">
			<stop  offset="0.2593" style="stop-color:#FFDB6E"/>
			<stop  offset="1" style="stop-color:#FFBC5E"/>
		</linearGradient>
		<line class="st9" x1="48.7" y1="88.6" x2="48.8" y2="48.9"/>
	</g>
</g>
<linearGradient id="SVGID_9_" gradientUnits="userSpaceOnUse" x1="8.4998" y1="49.6906" x2="89.3523" y2="49.6906">
	<stop  offset="0.2593" style="stop-color:#FFDB6E"/>
	<stop  offset="1" style="stop-color:#FFBC5E"/>
</linearGradient>
<path class="st10" d="M89.4,24.8L51.6,3.4l-2.7,4.8l-2.7-4.8L8.5,24.8v45h3.6L10.2,73l38.6,23l37.7-21.4l-2.7-4.8h5.5L89.4,24.8z
	 M43.3,79.9L19.5,65.7V37.9L43.3,52L43.3,79.9z M24.8,28.2l24.1-13.7l24.1,13.7L48.9,42.5L24.8,28.2z M48.9,48.9L48.9,48.9
	L48.9,48.9L48.9,48.9z M78.4,66.6L54.3,80.3l0.1-28.2l24-14.2L78.4,66.6z"/>
<g class="st2">
	<line class="st11" x1="48.9" y1="0" x2="48.9" y2="27.7"/>
	<line class="st11" x1="7.4" y1="72" x2="33.9" y2="56.8"/>
	<line class="st11" x1="88" y1="72" x2="61.5" y2="56.8"/>
</g>
<g>
	<rect x="44.9" y="0" width="8" height="27.7"/>
</g>
<rect x="5.4" y="60.4" transform="matrix(0.866 -0.5 0.5 0.866 -29.4338 18.9632)" width="30.6" height="8"/>
<g>
	<rect x="72.3" y="49.1" transform="matrix(0.5 -0.866 0.866 0.5 -17.6233 98.2804)" width="8" height="30.6"/>
</g>
</svg>
