<?xml version="1.0" encoding="utf-8"?>
<!-- Generator: Adobe Illustrator 23.0.1, SVG Export Plug-In . SVG Version: 6.00 Build 0)  -->
<svg version="1.1" id="Livello_1" xmlns="http://www.w3.org/2000/svg" xmlns:xlink="http://www.w3.org/1999/xlink" x="0px" y="0px"
	 viewBox="0 0 97.9 97.9" style="enable-background:new 0 0 97.9 97.9;" xml:space="preserve">
<style type="text/css">
	.st0{fill:url(#SVGID_1_);}
	.st1{fill:url(#SVGID_2_);stroke:url(#SVGID_3_);stroke-width:4;stroke-linecap:round;stroke-miterlimit:10;}
	.st2{fill:url(#SVGID_4_);stroke:url(#SVGID_5_);stroke-width:4;stroke-linecap:round;stroke-miterlimit:10;}
	.st3{fill:url(#SVGID_6_);stroke:url(#SVGID_7_);stroke-width:4;stroke-linecap:round;stroke-miterlimit:10;}
	.st4{fill:url(#SVGID_8_);stroke:url(#SVGID_9_);stroke-width:0.5;stroke-miterlimit:10;}
	.st5{fill:url(#SVGID_10_);stroke:url(#SVGID_11_);stroke-width:0.5;stroke-miterlimit:10;}
</style>
<image style="overflow:visible;" width="128" height="128" xlink:href="icon-tools.png"  transform="matrix(0.75 0 0 0.75 0.7696 0.7989)">
</image>
<g>
	<linearGradient id="SVGID_1_" gradientUnits="userSpaceOnUse" x1="0.5006" y1="49.0002" x2="96.9611" y2="49.0002">
		<stop  offset="0.2593" style="stop-color:#FFDB6E"/>
		<stop  offset="1" style="stop-color:#FFBC5E"/>
	</linearGradient>
	<path class="st0" d="M14.9,96.5c-3.2-0.9-3.5-2.9-0.8-5.3c1.5-1.3,2.9-2.8,4.2-4.2c2.6-2.7,2.5-5.4,0-7.9c-2.4-2.3-5-2.3-7.6,0.1
		c-1.6,1.4-3,3-4.5,4.5c-2.7,2.5-4.1,2.1-5.1-1.5C-1.8,72.1,7.2,59,17.9,59.4c2.8,0.1,5.6,0.3,7.5-0.8c5.2-3,7-7.7,11.4-11.2
		c1.3-1,0.3-2-0.5-2.8C29.7,38,23.1,31.5,16.6,24.9c-0.9-0.9-2.7-1.9-4-1.8c-3.1,0.3-2.7,0.4-4.3-2c-1.9-2.9-4.7-7.5-6.6-10.5
		c-1.3-2-1.1-3.7,0.7-5.3c1-0.9,2-1.9,2.9-2.9c1.5-1.6,3.1-1.9,5-0.8C14,3.9,17.6,6,21.3,8.3c2,1.2,2.1,1.9,1.9,3.4
		c-0.2,2.7,1.1,4.4,2.9,6.2c6,5.9,11.9,11.8,17.7,17.8c1.8,1.9,3.2,1.9,4.9,0c1.6-1.8,3.2-3.5,5-5c3.7-3.2,5.7-6.5,5.6-12
		C59.1,7.2,70.5-1.2,81.6,1c1.5,0.3,3.1,0.6,3.6,2.3c0.4,1.6-0.7,2.5-1.7,3.5c-1.6,1.6-3.2,3.2-4.7,4.8c-2.2,2.3-1.8,4.4,0.3,6.5
		c2.2,2.3,4.5,3.2,7.2,0.9c1.8-1.6,3.4-3.3,5.1-5c2-2.2,4.5-2.6,5.2,0.4c0.7,3.5,0.7,6.7,0,10.1c-2.1,10-10.7,14.7-21.2,13.9
		c-1.2-0.1-2.3,0.1-3.1,0.9c-2.7,2.6-6.2,6.2-8.9,8.9c-0.9,0.9,7,7.6,7.3,7.9c2.4,2.2,4.9,4.3,7.1,6.6c6.3,6.4,14.1,11.3,18.9,19.1
		c0,4.5-0.1,9,0,13.5c0,1.3-0.2,1.6-1.5,1.5c-4.2-0.1-8.5,0-12.7,0c-2.6-1.3-4.9-2.9-6.9-5c-6.4-7.1-12.9-14.2-19.3-21.3
		c-1-1.1-5.8-6.1-6.7-6.7c-1.1-0.7-1.9,0-2.6,0.7c-3.9,4.3-9.1,7.2-8.7,14.9c0.5,8.8-5.5,14.7-13.5,17.1
		C20.8,97.8,18.1,97.5,14.9,96.5z M79,5.1c-10.3-0.1-16.3,7-15.2,17.2c0.3,2.8-0.4,4.7-2.3,6.6C50.5,39.7,39.6,50.6,28.8,61.5
		c-2.1,2.1-4.1,2.7-7,2.2c-6.8-1.3-13.5,2.6-15.9,9.1c-0.6,1.7-1.4,4.1-0.4,6c7.7-6,10.6-7.3,14.2-3.8c2,2,4.4,3.5,5.1,6.7
		c1,5-2.6,7.6-5.6,10.9C28.3,93,35.5,85.1,34,76.2c-0.5-3.3,0.4-5.4,2.6-7.6c10.6-10.4,21.1-20.9,31.5-31.5c2.5-2.6,4.9-3.5,8.6-2.9
		c8.3,1.4,16.7-6.6,15.4-14.5c-2.9,1.5-4.2,5-7.9,5.3c-3.9,0.3-6.3-1.5-8.7-4.2c-1.3-1.4-2.1-2.9-2.4-4.9C72.2,11,75.8,8.6,79,5.1z
		 M92.7,85.6c0-2.5-1.4-4.2-3.1-5.8c-6.3-5.8-12.7-11.7-19-17.5c-3-2.8-9.7-10.5-11.2-10.3c-1.3,0.1-1.1,0.5-3.8,3.1
		c-1.1,1.1-4,3.6-3.9,4.4c0,0.9,6.7,7.6,7.6,8.5c3.4,3.5,6.6,7.1,9.9,10.7c3.6,3.9,7.2,7.9,11,11.7c2.3,2.3,5.1,3.2,8.2,1.6
		C91.1,90.8,92.6,88.6,92.7,85.6z M42.6,40.7c-0.6-0.7-1.2-1.5-1.9-2.2c-5.5-5.5-11-11-16.4-16.5c-2.5-2.5-5.7-4.7-5.3-9
		c0-0.6-0.6-1.4-1.2-1.8c-2.6-1.7-6.3-4.2-9.1-5.6C7.9,5.3,8,5.4,6.6,6.8c-1,1-1.2,1.3-0.9,1.8c1.5,3.4,6,10.4,7.7,10.5
		c3.8,0.2,6,2.6,8.4,5c5.4,5.4,10.8,10.8,16.2,16.2c0.7,0.7,1.4,1.5,2.2,2C41.5,42.9,42.3,42.2,42.6,40.7z"/>
	<linearGradient id="SVGID_2_" gradientUnits="userSpaceOnUse" x1="51.7219" y1="59.463" x2="67.5" y2="59.463">
		<stop  offset="0.2593" style="stop-color:#FFDB6E"/>
		<stop  offset="1" style="stop-color:#FFBC5E"/>
	</linearGradient>
	<linearGradient id="SVGID_3_" gradientUnits="userSpaceOnUse" x1="49.7219" y1="59.463" x2="69.5" y2="59.463">
		<stop  offset="0.2593" style="stop-color:#FFDB6E"/>
		<stop  offset="1" style="stop-color:#FFBC5E"/>
	</linearGradient>
	<line class="st1" x1="51.7" y1="67.4" x2="67.5" y2="51.5"/>
	<linearGradient id="SVGID_4_" gradientUnits="userSpaceOnUse" x1="67.5" y1="75.713" x2="84.2222" y2="75.713">
		<stop  offset="0.2593" style="stop-color:#FFDB6E"/>
		<stop  offset="1" style="stop-color:#FFBC5E"/>
	</linearGradient>
	<linearGradient id="SVGID_5_" gradientUnits="userSpaceOnUse" x1="65.5" y1="75.713" x2="86.2222" y2="75.713">
		<stop  offset="0.2593" style="stop-color:#FFDB6E"/>
		<stop  offset="1" style="stop-color:#FFBC5E"/>
	</linearGradient>
	<line class="st2" x1="67.5" y1="67.4" x2="84.2" y2="84"/>
	<linearGradient id="SVGID_6_" gradientUnits="userSpaceOnUse" x1="37.1111" y1="48.8704" x2="60.6667" y2="48.8704">
		<stop  offset="0.2593" style="stop-color:#FFDB6E"/>
		<stop  offset="1" style="stop-color:#FFBC5E"/>
	</linearGradient>
	<linearGradient id="SVGID_7_" gradientUnits="userSpaceOnUse" x1="35.1111" y1="48.8704" x2="62.6667" y2="48.8704">
		<stop  offset="0.2593" style="stop-color:#FFDB6E"/>
		<stop  offset="1" style="stop-color:#FFBC5E"/>
	</linearGradient>
	<line class="st3" x1="37.1" y1="60.5" x2="60.7" y2="37.2"/>
	<linearGradient id="SVGID_8_" gradientUnits="userSpaceOnUse" x1="30.3148" y1="65.7963" x2="33.537" y2="65.7963">
		<stop  offset="0.2593" style="stop-color:#FFDB6E"/>
		<stop  offset="1" style="stop-color:#FFBC5E"/>
	</linearGradient>
	<linearGradient id="SVGID_9_" gradientUnits="userSpaceOnUse" x1="30.0648" y1="65.7963" x2="33.787" y2="65.7963">
		<stop  offset="0.2593" style="stop-color:#FFDB6E"/>
		<stop  offset="1" style="stop-color:#FFBC5E"/>
	</linearGradient>
	<circle class="st4" cx="31.9" cy="65.8" r="1.6"/>
	<linearGradient id="SVGID_10_" gradientUnits="userSpaceOnUse" x1="64.2778" y1="31.7963" x2="67.5" y2="31.7963">
		<stop  offset="0.2593" style="stop-color:#FFDB6E"/>
		<stop  offset="1" style="stop-color:#FFBC5E"/>
	</linearGradient>
	<linearGradient id="SVGID_11_" gradientUnits="userSpaceOnUse" x1="64.0278" y1="31.7963" x2="67.75" y2="31.7963">
		<stop  offset="0.2593" style="stop-color:#FFDB6E"/>
		<stop  offset="1" style="stop-color:#FFBC5E"/>
	</linearGradient>
	<circle class="st5" cx="65.9" cy="31.8" r="1.6"/>
</g>
</svg>
